<svg width="138" height="56" viewBox="0 0 138 56" fill="none" xmlns="http://www.w3.org/2000/svg">
<g clip-path="url(#clip0_3_397)">
<path d="M0.200012 28.1069V23.1844C3.67479 23.1844 6.50009 20.3376 6.50009 16.8364H11.3853C11.3853 23.0522 6.3667 28.1069 0.200012 28.1069Z" fill="#C94277"/>
<path d="M11.3853 39.1636H6.50009C6.50009 35.6624 3.67479 32.8156 0.200012 32.8156V27.8931C6.36888 27.8931 11.3853 32.95 11.3853 39.1636Z" fill="#2C6E49"/>
<path d="M22.1486 28.1069V23.1844C18.6738 23.1844 15.8485 20.3376 15.8485 16.8364H10.9633C10.9633 23.0522 15.9819 28.1069 22.1486 28.1069Z" fill="#FFE900"/>
<path d="M10.9611 39.1636H15.8463C15.8463 35.6624 18.6716 32.8156 22.1464 32.8156V27.8931C15.9775 27.8931 10.9611 32.95 10.9611 39.1636Z" fill="#F4743B"/>
<path d="M28.7264 20.201H32.363L34.1102 28.5409L36.5026 20.2979H39.4219L41.6939 28.5409L43.439 20.201H46.9313L43.2947 32.7825H40.0407L37.8168 24.4911L35.5688 32.7825H32.363L28.7264 20.201Z" fill="#211E1D"/>
<path d="M59.2734 28.8539C59.0503 30.2685 58.4883 31.3415 57.5874 32.0709C56.6864 32.8024 55.3744 33.1682 53.6512 33.1682C51.5781 33.1682 50.019 32.5887 48.9737 31.4319C47.9284 30.2751 47.408 28.6357 47.408 26.5138C47.408 25.454 47.5588 24.5087 47.8628 23.6824C48.1646 22.8562 48.5932 22.1511 49.1421 21.5738C49.6931 20.9965 50.3492 20.558 51.1145 20.2605C51.8799 19.9631 52.7262 19.8154 53.6512 19.8154C55.5646 19.8154 57.0035 20.3707 57.97 21.479C58.9344 22.5873 59.4177 24.0813 59.4177 25.963V27.3137H50.7581C50.7887 28.3251 51.0446 29.1183 51.5235 29.6868C52.0024 30.2575 52.7196 30.5417 53.6752 30.5417C54.9982 30.5417 55.7811 29.9798 56.0194 28.8539H59.2734ZM56.1878 25.0926C56.1878 24.2245 55.9757 23.5502 55.5537 23.0677C55.1316 22.5851 54.4734 22.345 53.5812 22.345C53.1351 22.345 52.7437 22.4177 52.4091 22.5609C52.0745 22.7063 51.7902 22.9024 51.5606 23.1514C51.3288 23.4004 51.1495 23.689 51.0227 24.0196C50.8937 24.3501 50.8237 24.707 50.8084 25.0926H56.19H56.1878Z" fill="#211E1D"/>
<path d="M61.4754 15.5738H64.8234V32.7825H61.4754V15.5738Z" fill="#211E1D"/>
<path d="M67.3578 15.5738H70.708V32.7825H67.3578V15.5738Z" fill="#211E1D"/>
<path d="M73.2184 20.201H76.4723V21.9373C76.9665 21.1992 77.5526 20.6593 78.2305 20.3222C78.9084 19.9851 79.6147 19.8154 80.3472 19.8154C81.7665 19.8154 82.8183 20.19 83.5049 20.937C84.1894 21.6839 84.5327 22.8606 84.5327 24.4691V32.7848H81.1848V24.9274C81.1848 24.0438 81.0164 23.4423 80.6818 23.1206C80.3472 22.7989 79.9011 22.638 79.3413 22.638C78.9105 22.638 78.541 22.7019 78.2283 22.8319C77.9177 22.9597 77.6269 23.1448 77.3557 23.3872C77.1327 23.6119 76.9446 23.8807 76.7938 24.1936C76.6429 24.5065 76.5663 24.848 76.5663 25.2182V32.787H73.2184V20.2054V20.201Z" fill="#211E1D"/>
<path d="M98.3356 28.8539C98.1126 30.2685 97.5506 31.3415 96.6496 32.0709C95.7487 32.8024 94.4366 33.1682 92.7156 33.1682C90.6426 33.1682 89.0834 32.5887 88.0381 31.4319C86.9928 30.2751 86.4702 28.6357 86.4702 26.5138C86.4702 25.454 86.6211 24.5087 86.9251 23.6824C87.2268 22.8562 87.6554 22.1511 88.2043 21.5738C88.7554 20.9965 89.4114 20.558 90.179 20.2605C90.9443 19.9631 91.7906 19.8154 92.7156 19.8154C94.629 19.8154 96.0679 20.3707 97.0323 21.479C97.9967 22.5873 98.4799 24.0813 98.4799 25.963V27.3137H89.8203C89.8531 28.3251 90.1068 29.1183 90.5857 29.6868C91.0646 30.2575 91.7819 30.5417 92.7397 30.5417C94.0627 30.5417 94.8455 29.9798 95.0839 28.8539H98.3378H98.3356ZM95.2501 25.0926C95.2501 24.2245 95.038 23.5502 94.6159 23.0677C94.1939 22.5851 93.5357 22.345 92.6413 22.345C92.1952 22.345 91.8037 22.4177 91.4692 22.5609C91.1346 22.7063 90.8503 22.9024 90.6207 23.1514C90.3889 23.4004 90.2096 23.689 90.0828 24.0196C89.9559 24.3501 89.8838 24.707 89.8684 25.0926H95.2501Z" fill="#211E1D"/>
<path d="M102.93 28.7834C103.042 29.5237 103.337 30.0041 103.816 30.2288C104.295 30.4536 104.867 30.5659 105.539 30.5659C106.337 30.5659 106.906 30.4668 107.249 30.2641C107.592 30.0636 107.763 29.7374 107.763 29.2879C107.763 28.9662 107.656 28.6864 107.439 28.444C107.225 28.2039 106.814 28.0342 106.208 27.9372L104.485 27.6486C102.969 27.4084 101.841 26.9942 101.1 26.4081C100.358 25.822 99.9866 24.934 99.9866 23.7441C99.9866 23.1338 100.118 22.5873 100.38 22.1048C100.643 21.6222 101.014 21.2124 101.493 20.8753C101.972 20.5382 102.541 20.2759 103.203 20.0931C103.866 19.908 104.594 19.8154 105.392 19.8154C106.381 19.8154 107.209 19.9168 107.881 20.1173C108.55 20.3178 109.097 20.5866 109.519 20.9238C109.941 21.2609 110.26 21.6641 110.477 22.129C110.691 22.5961 110.848 23.0941 110.942 23.6229L107.953 24.0085C107.809 23.429 107.557 23.0038 107.199 22.7306C106.84 22.4573 106.263 22.3207 105.464 22.3207C105.018 22.3207 104.647 22.356 104.351 22.4287C104.056 22.5014 103.824 22.5939 103.658 22.7063C103.49 22.8187 103.372 22.9465 103.3 23.0919C103.227 23.2373 103.192 23.374 103.192 23.5018C103.192 23.9028 103.315 24.198 103.564 24.3809C103.811 24.566 104.295 24.7225 105.012 24.8503L106.591 25.1147C107.468 25.2601 108.194 25.4452 108.766 25.6699C109.342 25.8947 109.799 26.1723 110.142 26.5006C110.485 26.8311 110.724 27.2189 110.859 27.6706C110.995 28.1201 111.063 28.6423 111.063 29.2373C111.063 30.4271 110.616 31.379 109.722 32.0929C108.828 32.8068 107.45 33.166 105.585 33.166C104.835 33.166 104.122 33.0977 103.444 32.9611C102.766 32.8244 102.16 32.5865 101.627 32.2493C101.093 31.9122 100.654 31.4627 100.31 30.8986C99.9669 30.3368 99.7723 29.6295 99.7242 28.7768H102.93V28.7834Z" fill="#211E1D"/>
<path d="M115.296 28.7834C115.408 29.5237 115.703 30.0041 116.182 30.2288C116.661 30.4536 117.234 30.5659 117.905 30.5659C118.703 30.5659 119.272 30.4668 119.615 30.2641C119.958 30.0636 120.129 29.7374 120.129 29.2879C120.129 28.9662 120.022 28.6864 119.805 28.444C119.591 28.2039 119.18 28.0342 118.574 27.9372L116.851 27.6486C115.336 27.4084 114.207 26.9942 113.466 26.4081C112.725 25.822 112.353 24.934 112.353 23.7441C112.353 23.1338 112.484 22.5873 112.746 22.1048C113.009 21.6222 113.381 21.2124 113.859 20.8753C114.338 20.5382 114.907 20.2759 115.57 20.0931C116.232 19.908 116.96 19.8154 117.758 19.8154C118.747 19.8154 119.576 19.9168 120.247 20.1173C120.916 20.3178 121.463 20.5866 121.885 20.9238C122.307 21.2609 122.626 21.6641 122.843 22.129C123.057 22.5961 123.214 23.0941 123.309 23.6229L120.319 24.0085C120.175 23.429 119.923 23.0038 119.565 22.7306C119.206 22.4573 118.629 22.3207 117.831 22.3207C117.385 22.3207 117.013 22.356 116.718 22.4287C116.422 22.5014 116.191 22.5939 116.024 22.7063C115.856 22.8187 115.738 22.9465 115.666 23.0919C115.594 23.2373 115.559 23.374 115.559 23.5018C115.559 23.9028 115.681 24.198 115.93 24.3809C116.177 24.566 116.661 24.7225 117.378 24.8503L118.957 25.1147C119.834 25.2601 120.56 25.4452 121.133 25.6699C121.708 25.8947 122.165 26.1723 122.508 26.5006C122.851 26.8311 123.09 27.2189 123.225 27.6706C123.361 28.1201 123.429 28.6423 123.429 29.2373C123.429 30.4271 122.983 31.379 122.088 32.0929C121.194 32.8068 119.816 33.166 117.951 33.166C117.201 33.166 116.488 33.0977 115.81 32.9611C115.132 32.8244 114.526 32.5865 113.993 32.2493C113.459 31.9122 113.02 31.4627 112.676 30.8986C112.333 30.3368 112.139 29.6295 112.09 28.7768H115.296V28.7834Z" fill="#211E1D"/>
<path d="M28.7264 38.7428H32.363L34.1102 47.0828L36.5026 38.8397H39.4219L41.6939 47.0828L43.439 38.7428H46.9313L43.2947 51.3243H40.0407L37.8168 43.0329L35.5688 51.3243H32.363L28.7264 38.7428Z" fill="#211E1D"/>
<path d="M53.7233 51.7099C51.7137 51.7099 50.1589 51.1304 49.059 49.9736C47.959 48.8168 47.408 47.1621 47.408 45.0093C47.408 43.9803 47.5545 43.0527 47.8497 42.2242C48.1449 41.3957 48.5669 40.6972 49.118 40.1265C49.6691 39.5558 50.3339 39.1174 51.1145 38.8133C51.8952 38.5092 52.7655 38.355 53.7212 38.355C54.6768 38.355 55.5712 38.507 56.3518 38.8133C57.1325 39.1196 57.7995 39.5558 58.3484 40.1265C58.8994 40.6972 59.3171 41.3957 59.6036 42.2242C59.89 43.0527 60.0344 43.9803 60.0344 45.0093C60.0344 46.0383 59.8857 46.9902 59.5926 47.8165C59.2974 48.645 58.8754 49.3479 58.3243 49.9252C57.7732 50.5047 57.1085 50.9453 56.3278 51.2516C55.5471 51.5557 54.6768 51.7099 53.7212 51.7099H53.7233ZM53.7233 49.0107C54.6811 49.0107 55.394 48.6648 55.8642 47.9751C56.3343 47.2855 56.5705 46.2961 56.5705 45.0115C56.5705 43.7269 56.3343 42.7464 55.8642 42.0699C55.394 41.3957 54.6811 41.0586 53.7233 41.0586C52.7655 41.0586 52.0527 41.3957 51.5825 42.0699C51.1123 42.7442 50.8762 43.7247 50.8762 45.0115C50.8762 46.2983 51.108 47.3053 51.5694 47.9883C52.0308 48.6714 52.7502 49.0129 53.7212 49.0129L53.7233 49.0107Z" fill="#211E1D"/>
<path d="M62.0965 38.7428H65.3504V40.5033C65.7659 39.8445 66.2667 39.3509 66.8571 39.0204C67.4475 38.6921 68.0686 38.5269 68.7224 38.5269C69.0417 38.5269 69.3041 38.5379 69.5118 38.5621C69.7196 38.5863 69.9033 38.615 70.0629 38.6458L69.6562 41.7064C69.2735 41.6094 68.8033 41.561 68.2457 41.561C67.8783 41.561 67.5284 41.605 67.1939 41.6932C66.8593 41.7813 66.5553 41.9466 66.2842 42.1867C65.9977 42.4445 65.7856 42.7332 65.65 43.0549C65.5144 43.3766 65.4466 43.7049 65.4466 44.0442V51.3243H62.0987V38.7428H62.0965Z" fill="#211E1D"/>
<path d="M71.6417 34.1156H74.9197V43.1298L79.7284 38.7428H83.6033L79.0592 43.0813L83.962 51.3243H80.3494L76.6647 44.9609L74.9197 46.5517V51.3243H71.6417V34.1156Z" fill="#211E1D"/>
<path d="M87.1415 47.3229C87.2531 48.0633 87.5483 48.5436 88.0272 48.7684C88.5061 48.9931 89.079 49.1055 89.7504 49.1055C90.5485 49.1055 91.1171 49.0063 91.4604 48.8036C91.8037 48.6031 91.9743 48.277 91.9743 47.8275C91.9743 47.5058 91.8672 47.226 91.6507 46.9836C91.4364 46.7434 91.0252 46.5738 90.4195 46.4768L88.6963 46.1882C87.1809 45.948 86.0525 45.5337 85.3112 44.9476C84.5699 44.3615 84.1982 43.4735 84.1982 42.2837C84.1982 41.6733 84.3294 41.1269 84.594 40.6443C84.8564 40.1618 85.2281 39.752 85.707 39.4148C86.1859 39.0777 86.7567 38.8155 87.4171 38.6304C88.0797 38.4453 88.8079 38.3528 89.606 38.3528C90.5945 38.3528 91.4232 38.4541 92.0946 38.6547C92.7637 38.8552 93.3104 39.124 93.7325 39.4611C94.1545 39.7982 94.4738 40.2015 94.6903 40.6664C94.9046 41.1335 95.0598 41.6315 95.156 42.1603L92.1667 42.5459C92.0224 41.9664 91.7709 41.5411 91.4123 41.2679C91.0537 40.9947 90.4764 40.8581 89.6782 40.8581C89.2321 40.8581 88.8603 40.8933 88.5651 40.966C88.2699 41.0388 88.0381 41.1313 87.8719 41.2437C87.7035 41.356 87.5855 41.4838 87.5133 41.6293C87.4411 41.7747 87.4061 41.9113 87.4061 42.0391C87.4061 42.4401 87.5286 42.7332 87.7779 42.9183C88.025 43.1034 88.5083 43.2598 89.2255 43.3876L90.8044 43.652C91.6813 43.7974 92.4073 43.9825 92.9802 44.2073C93.5531 44.432 94.0124 44.7097 94.3557 45.038C94.699 45.3685 94.9374 45.7563 95.073 46.208C95.2085 46.6575 95.2763 47.1797 95.2763 47.7746C95.2763 48.9645 94.8302 49.9163 93.9358 50.6303C93.0414 51.3442 91.6638 51.7033 89.7985 51.7033C89.0484 51.7033 88.3355 51.635 87.6576 51.4984C86.9797 51.3618 86.374 51.1238 85.8404 50.7867C85.3047 50.4496 84.8673 50.0001 84.524 49.436C84.1807 48.8741 83.986 48.1668 83.9379 47.3141H87.1437L87.1415 47.3229Z" fill="#211E1D"/>
<path d="M97.0935 34.1156H100.441V40.3337C100.936 39.6594 101.511 39.1614 102.165 38.8397C102.818 38.518 103.505 38.3572 104.222 38.3572C105.642 38.3572 106.693 38.7318 107.38 39.4787C108.065 40.2257 108.408 41.4023 108.408 43.0108V51.3265H105.06V43.4691C105.06 42.5856 104.892 41.984 104.557 41.6623C104.222 41.3406 103.776 41.1798 103.216 41.1798C102.786 41.1798 102.416 41.2437 102.103 41.3737C101.793 41.5037 101.502 41.6866 101.231 41.9289C101.008 42.1537 100.82 42.4225 100.669 42.7354C100.518 43.0483 100.441 43.3898 100.441 43.76V51.3287H97.0935V34.12V34.1156Z" fill="#211E1D"/>
<path d="M116.661 51.7099C114.651 51.7099 113.096 51.1304 111.996 49.9736C110.896 48.8168 110.345 47.1621 110.345 45.0093C110.345 43.9803 110.492 43.0527 110.787 42.2242C111.082 41.3957 111.504 40.6972 112.055 40.1265C112.606 39.5558 113.271 39.1174 114.052 38.8133C114.833 38.5092 115.703 38.355 116.659 38.355C117.614 38.355 118.509 38.507 119.289 38.8133C120.07 39.1196 120.737 39.5558 121.286 40.1265C121.837 40.6972 122.254 41.3957 122.541 42.2242C122.827 43.0527 122.972 43.9803 122.972 45.0093C122.972 46.0383 122.823 46.9902 122.53 47.8165C122.235 48.645 121.813 49.3479 121.262 49.9252C120.711 50.5047 120.046 50.9453 119.265 51.2516C118.484 51.5557 117.614 51.7099 116.659 51.7099H116.661ZM116.661 49.0107C117.619 49.0107 118.331 48.6648 118.802 47.9751C119.272 47.2855 119.508 46.2961 119.508 45.0115C119.508 43.7269 119.272 42.7464 118.802 42.0699C118.331 41.3957 117.619 41.0586 116.661 41.0586C115.703 41.0586 114.99 41.3957 114.52 42.0699C114.05 42.7442 113.814 43.7247 113.814 45.0115C113.814 46.2983 114.045 47.3053 114.507 47.9883C114.968 48.6714 115.688 49.0129 116.661 49.0129V49.0107Z" fill="#211E1D"/>
<path d="M125.032 38.7428H128.286V40.4064C129.243 39.0402 130.549 38.3572 132.209 38.3572C133.868 38.3572 135.246 38.9521 136.108 40.1397C136.969 41.3296 137.4 42.9601 137.4 45.0336C137.4 46.0295 137.275 46.9373 137.028 47.757C136.781 48.5767 136.423 49.2795 135.952 49.8657C135.482 50.4518 134.911 50.9057 134.242 51.2274C133.573 51.5491 132.814 51.7099 131.97 51.7099C131.349 51.7099 130.73 51.5975 130.116 51.3728C129.501 51.148 128.924 50.6986 128.382 50.0221V56H125.034V38.7428H125.032ZM128.358 45.1305C128.358 45.9502 128.426 46.6046 128.561 47.096C128.697 47.5873 128.915 47.9839 129.219 48.2902C129.539 48.5789 129.862 48.7684 130.188 48.8565C130.514 48.9446 130.846 48.9887 131.181 48.9887C131.548 48.9887 131.898 48.916 132.233 48.7728C132.567 48.6273 132.858 48.3982 133.105 48.0853C133.352 47.7724 133.547 47.367 133.691 46.869C133.836 46.371 133.906 45.7695 133.906 45.0622C133.906 44.3549 133.838 43.7049 133.702 43.2069C133.567 42.7089 133.379 42.3035 133.14 41.9906C132.902 41.6777 132.618 41.453 132.292 41.3164C131.964 41.1798 131.618 41.1115 131.251 41.1115C130.835 41.1115 130.477 41.1687 130.175 41.2811C129.871 41.3935 129.578 41.5698 129.289 41.8121C128.97 42.1184 128.734 42.504 128.583 42.9689C128.432 43.4361 128.356 44.0288 128.356 44.7515V45.1371L128.358 45.1305Z" fill="#211E1D"/>
<path d="M35.6694 12.3414C35.4857 12.3943 35.2976 12.4317 35.1074 12.4516C34.915 12.4714 34.7225 12.4824 34.5388 12.4824C34.1977 12.4824 33.9156 12.3899 33.7035 12.207C33.4958 12.0285 33.3886 11.6694 33.3886 11.1405V6.31063H35.8181V3.91772H33.3886V1.08191H30.3862V3.91772H28.7264V6.31063H30.3862V11.2022C30.3862 12.5397 30.677 13.507 31.2521 14.0777C31.8251 14.6484 32.7129 14.9392 33.8916 14.9392C34.2305 14.9392 34.5913 14.915 34.9653 14.8665C35.3414 14.8181 35.7306 14.7321 36.1221 14.6087L36.1942 14.5867L35.7569 12.3194L35.6694 12.3458V12.3414Z" fill="#211E1D"/>
<path d="M43.1219 3.58938C42.5052 3.58938 41.9061 3.7304 41.3441 4.00582C40.8455 4.2504 40.3972 4.61837 40.008 5.09872V0H37.0055V14.7321H40.008V8.24301C40.008 7.94334 40.0692 7.66571 40.1916 7.41231C40.3141 7.15672 40.4694 6.93417 40.6465 6.7557C40.8674 6.55959 41.1079 6.40755 41.3616 6.30179C41.613 6.19823 41.9192 6.14535 42.2713 6.14535C42.7195 6.14535 43.0804 6.27535 43.3472 6.52874C43.6117 6.78214 43.7451 7.27791 43.7451 7.99622V14.7299H46.7476V7.60842C46.7476 6.23348 46.448 5.20889 45.8554 4.56329C45.2606 3.91548 44.3421 3.58717 43.1219 3.58717V3.58938Z" fill="#211E1D"/>
<path d="M58.5474 8.87537C58.5474 7.27128 58.1275 5.97566 57.3009 5.02599C56.4721 4.0719 55.2213 3.58936 53.5834 3.58936C52.794 3.58936 52.0614 3.71715 51.4076 3.97275C50.7515 4.22835 50.1786 4.60954 49.7062 5.10531C49.2339 5.60108 48.8643 6.21143 48.6041 6.91873C48.3461 7.62603 48.2149 8.44129 48.2149 9.3447C48.2149 11.1537 48.6675 12.5727 49.5619 13.562C50.4585 14.5558 51.8099 15.0582 53.5812 15.0582C55.0507 15.0582 56.19 14.7387 56.9641 14.1107C57.7404 13.4805 58.2303 12.5485 58.4227 11.3344L58.438 11.2352H55.5187L55.5034 11.3013C55.3087 12.2158 54.6877 12.6608 53.6031 12.6608C52.8224 12.6608 52.232 12.4273 51.8449 11.9668C51.4688 11.5173 51.2589 10.8893 51.2217 10.0983H58.5452V8.87096L58.5474 8.87537ZM51.2654 8.05569C51.2851 7.77366 51.3419 7.50704 51.4382 7.26467C51.5409 6.99805 51.6896 6.76008 51.8755 6.55737C52.0614 6.35685 52.2954 6.1938 52.5665 6.07702C52.8377 5.96024 53.1613 5.90075 53.5243 5.90075C54.2504 5.90075 54.7927 6.09685 55.1316 6.48465C55.4596 6.85924 55.6324 7.38806 55.6455 8.05569H51.2654Z" fill="#211E1D"/>
</g>
<defs>
<clipPath id="clip0_3_397">
<rect width="137.2" height="56" fill="white" transform="translate(0.200012)"/>
</clipPath>
</defs>
</svg>
