<svg width="33" height="32" viewBox="0 0 33 32" fill="none" xmlns="http://www.w3.org/2000/svg">
<path d="M33 6.58156C30.7292 7.41371 28.9883 8.69976 27.7772 10.4397C26.6418 12.1797 26.0741 14.26 26.0741 16.6808H33V32H18.8075V16.6808C18.8075 14.5626 19.186 12.5957 19.9429 10.7801C20.6999 8.96454 21.7217 7.37589 23.0085 6.01418C24.2953 4.57683 25.7713 3.36643 27.4366 2.38298C29.1775 1.39953 31.032 0.605202 33 0V6.58156ZM14.1925 6.58156C11.9217 7.41371 10.1807 8.69976 8.96964 10.4397C7.83425 12.1797 7.26655 14.26 7.26655 16.6808H14.1925V32H0V16.6808C0 14.5626 0.378466 12.5957 1.1354 10.7801C1.89233 8.96454 2.91419 7.37589 4.20097 6.01418C5.48776 4.57683 6.96377 3.36643 8.62902 2.38298C10.37 1.39953 12.2244 0.605202 14.1925 0V6.58156Z" fill="#C94277"/>
</svg>
