<svg width="42" height="42" viewBox="0 0 42 42" fill="none" xmlns="http://www.w3.org/2000/svg">
<g id="star-01">
<path id="Icon" d="M19.7446 6.04327C20.148 5.22613 20.3497 4.81756 20.6234 4.68702C20.8617 4.57344 21.1384 4.57344 21.3766 4.68702C21.6504 4.81756 21.8521 5.22613 22.2554 6.04327L26.0821 13.7957C26.2012 14.037 26.2607 14.1576 26.3477 14.2512C26.4248 14.3341 26.5172 14.4013 26.6198 14.4491C26.7357 14.503 26.8688 14.5224 27.135 14.5613L35.6947 15.8125C36.5961 15.9442 37.0468 16.0101 37.2554 16.2302C37.4368 16.4218 37.5222 16.685 37.4876 16.9466C37.4479 17.2472 37.1216 17.565 36.4691 18.2006L30.2775 24.2312C30.0845 24.4192 29.988 24.5132 29.9257 24.625C29.8706 24.7241 29.8352 24.8328 29.8216 24.9454C29.8062 25.0724 29.829 25.2052 29.8745 25.4708L31.3354 33.9887C31.4895 34.8871 31.5666 35.3363 31.4218 35.6028C31.2958 35.8348 31.0719 35.9974 30.8124 36.0455C30.5141 36.1008 30.1107 35.8887 29.3039 35.4644L21.6517 31.4402C21.4132 31.3148 21.294 31.2521 21.1684 31.2275C21.0572 31.2057 20.9428 31.2057 20.8316 31.2275C20.706 31.2521 20.5868 31.3148 20.3484 31.4402L12.6961 35.4644C11.8894 35.8887 11.486 36.1008 11.1877 36.0455C10.9282 35.9974 10.7043 35.8348 10.5783 35.6028C10.4335 35.3363 10.5105 34.8871 10.6646 33.9887L12.1256 25.4708C12.1711 25.2052 12.1939 25.0724 12.1785 24.9454C12.1648 24.8328 12.1294 24.7241 12.0743 24.625C12.012 24.5132 11.9155 24.4192 11.7225 24.2312L5.53098 18.2006C4.87841 17.565 4.55213 17.2472 4.51242 16.9466C4.47788 16.685 4.56322 16.4218 4.74469 16.2302C4.95326 16.0101 5.40395 15.9442 6.30533 15.8125L14.865 14.5613C15.1312 14.5224 15.2643 14.503 15.3803 14.4491C15.4829 14.4013 15.5753 14.3341 15.6523 14.2512C15.7393 14.1576 15.7989 14.037 15.918 13.7957L19.7446 6.04327Z" fill="#211E1D" stroke="#211E1D" stroke-width="3.5" stroke-linecap="round" stroke-linejoin="round"/>
</g>
</svg>
